<svg xmlns="http://www.w3.org/2000/svg" width="473.656" height="108.626" viewBox="0 0 473.656 108.626">
  <path id="KWEEBz" class="cls-1" d="M32.35,107V64.25q13.2-.148,13.2,6.45V107h32.7V66.8a14.92,14.92,0,0,0-1.275-6.15,17.994,17.994,0,0,0-3.525-5.175,26.47,26.47,0,0,0-5.175-4.125,34.189,34.189,0,0,0-6.225-3l1.725-1.725A18.354,18.354,0,0,0,65.875,44,32.974,32.974,0,0,0,68.2,39.875a48.5,48.5,0,0,0,2.4-6.225L80.95,2H48.1L37.45,34.1a15.157,15.157,0,0,1-1.95,4.275,4.2,4.2,0,0,1-3.15,1.275V2H-0.35V107h32.7ZM123.1,2V68.15q0,5.7-1.125,8.175T116.648,78.8q-4.2,0-5.325-2.475T110.2,68.15V2H77.5V73.7a39.827,39.827,0,0,0,1.95,11.925,30.62,30.62,0,0,0,6.6,11.4A35.072,35.072,0,0,0,98.123,105.5q7.424,3.3,18.525,3.3a34.251,34.251,0,0,0,11.4-2.325,28.406,28.406,0,0,0,11.4-7.725,28.4,28.4,0,0,0,11.4,7.725,34.246,34.246,0,0,0,11.4,2.325q10.949,0,18.45-3.3a34.939,34.939,0,0,0,12.15-8.475,30.663,30.663,0,0,0,6.6-11.4A39.881,39.881,0,0,0,201.4,73.7V2H168.7V68.15q0,5.7-1.125,8.175T162.248,78.8q-4.2,0-5.325-2.475T155.8,68.15V2H123.1ZM268.9,41.9H235.3a17.443,17.443,0,0,1,3.9-5.925,19.973,19.973,0,0,1,5.175-3.675,21.654,21.654,0,0,1,5.85-1.875A36.1,36.1,0,0,1,256.3,29.9h12.6V2H252.4a59.01,59.01,0,0,0-18.75,3.15,50.953,50.953,0,0,0-17.1,9.675A49.778,49.778,0,0,0,204.1,31.25q-4.8,9.9-4.8,23.25t4.8,23.25a49.778,49.778,0,0,0,12.45,16.425,50.953,50.953,0,0,0,17.1,9.675A59.01,59.01,0,0,0,252.4,107h16.5V79.1H256.3a35.847,35.847,0,0,1-6.075-.525,21.57,21.57,0,0,1-5.85-1.875,19.916,19.916,0,0,1-5.175-3.675,17.42,17.42,0,0,1-3.9-5.925h33.6V41.9Zm64.048,0h-33.6a17.443,17.443,0,0,1,3.9-5.925,19.973,19.973,0,0,1,5.175-3.675,21.654,21.654,0,0,1,5.85-1.875,36.1,36.1,0,0,1,6.075-.525h12.6V2h-16.5A59.01,59.01,0,0,0,297.7,5.15a50.953,50.953,0,0,0-17.1,9.675,49.778,49.778,0,0,0-12.45,16.425q-4.8,9.9-4.8,23.25t4.8,23.25A49.778,49.778,0,0,0,280.6,94.175a50.953,50.953,0,0,0,17.1,9.675,59.01,59.01,0,0,0,18.75,3.15h16.5V79.1h-12.6a35.847,35.847,0,0,1-6.075-.525,21.57,21.57,0,0,1-5.85-1.875,19.916,19.916,0,0,1-5.175-3.675,17.42,17.42,0,0,1-3.9-5.925h33.6V41.9ZM363.394,107V37.4q0-4.5,1.35-6.3a5.081,5.081,0,0,1,4.35-1.8,7.724,7.724,0,0,1,4.2,1.35,4.362,4.362,0,0,1,2.1,3.9,6.654,6.654,0,0,1-2.025,5.25,7.944,7.944,0,0,1-5.475,1.8V64.7q1.947,0,4.125.075a13.3,13.3,0,0,1,4.05.75,7.08,7.08,0,0,1,3.075,2.1,6,6,0,0,1,1.2,3.975,5.531,5.531,0,0,1-1.275,3.825,8.273,8.273,0,0,1-3.15,2.175,17.123,17.123,0,0,1-4.05,1.05q-2.177.3-3.975,0.45V107h13.5a38.94,38.94,0,0,0,12.675-2.025,30.42,30.42,0,0,0,10.425-6,27.647,27.647,0,0,0,7.05-9.825,33.533,33.533,0,0,0,2.55-13.5q0-17.55-13.35-25.65a26.142,26.142,0,0,0,5.25-8.325,27.848,27.848,0,0,0,1.5-9.525,28.481,28.481,0,0,0-3.15-13.575A30.976,30.976,0,0,0,396.019,8.6a38.324,38.324,0,0,0-11.85-6.225A43.619,43.619,0,0,0,370.594.2a50.138,50.138,0,0,0-16.5,2.55,36.963,36.963,0,0,0-12.525,7.125,31.359,31.359,0,0,0-8.025,11.1,35.391,35.391,0,0,0-2.85,14.325V107h32.7Zm109.8-25.2h-27.75l19.5-18.3q2.849-2.7,4.575-4.65a17.757,17.757,0,0,0,2.625-3.75,12.674,12.674,0,0,0,1.2-3.675,28.378,28.378,0,0,0,.3-4.425q0-7.65-5.925-11.325T452.492,32h-43.05V57.2h24.15l-22.8,21.15a24.44,24.44,0,0,0-4.875,5.85,14.866,14.866,0,0,0-1.725,7.5,16.6,16.6,0,0,0,1.5,7.575,11.434,11.434,0,0,0,4.35,4.65,19.483,19.483,0,0,0,7.05,2.4,59.9,59.9,0,0,0,9.45.675h46.65V81.8Z" transform="translate(0 -0.188)"/>
</svg>
