<?xml version="1.0" encoding="UTF-8" standalone="no"?>
<!-- Created with Inkscape (http://www.inkscape.org/) -->

<svg
   xmlns:dc="http://purl.org/dc/elements/1.1/"
   xmlns:cc="http://creativecommons.org/ns#"
   xmlns:rdf="http://www.w3.org/1999/02/22-rdf-syntax-ns#"
   xmlns:svg="http://www.w3.org/2000/svg"
   xmlns="http://www.w3.org/2000/svg"
   xmlns:sodipodi="http://sodipodi.sourceforge.net/DTD/sodipodi-0.dtd"
   xmlns:inkscape="http://www.inkscape.org/namespaces/inkscape"
   width="210mm"
   height="297mm"
   viewBox="0 0 210 297"
   version="1.1"
   id="svg8"
   inkscape:version="0.92.1 r15371"
   sodipodi:docname="werb flat.svg">
  <sodipodi:namedview
     id="base"
     pagecolor="#ffffff"
     bordercolor="#666666"
     borderopacity="1.0"
     inkscape:pageopacity="0.0"
     inkscape:pageshadow="2"
     inkscape:zoom="0.49497475"
     inkscape:cx="588.13725"
     inkscape:cy="546.64163"
     inkscape:document-units="mm"
     inkscape:current-layer="layer1"
     showgrid="false"
     inkscape:window-width="1920"
     inkscape:window-height="1057"
     inkscape:window-x="-8"
     inkscape:window-y="-8"
     inkscape:window-maximized="1" />
  <defs
     id="defs2" />
  <metadata
     id="metadata5">
    <rdf:RDF>
      <cc:Work
         rdf:about="">
        <dc:format>image/svg+xml</dc:format>
        <dc:type
           rdf:resource="http://purl.org/dc/dcmitype/StillImage" />
        <dc:title></dc:title>
      </cc:Work>
    </rdf:RDF>
  </metadata>
  <g
     id="layer1"
     inkscape:groupmode="layer"
     inkscape:label="Layer 1">
    <path
       transform="matrix(-1,0,0,-0.36820474,0,16.188995)"
       d="M-106.28844 -89.696628L-102.131855625 -111.5395835L-78.80811 -119.92861L-49.867029375 -102.1912295L-43.085634 -68.344692L-67.793723625 -33.736545625L-110.17812 -27.071819L-142.5380575 -46.771582875L-158.07002 -81.437011"
       sodipodi:t0="0.059"
       sodipodi:argument="-15.752877"
       sodipodi:radius="67.347679"
       sodipodi:revolution="1"
       sodipodi:expansion="0.5"
       sodipodi:cy="-84.460846"
       sodipodi:cx="-90.79026"
       id="path12"
       style="fill:none;fill-rule:evenodd;stroke:#000000;stroke-width:6.85729808;stroke-miterlimit:4;stroke-dasharray:none"
       sodipodi:type="spiral" />
    <path
       inkscape:connector-curvature="0"
       d="M85.122381 55.633659L85.32969 83.479456L85.593977 117.27746L85.710264 138.72528L85.780534 153.92146L86.371775 163.61144L86.594358 167.84205L76.641387 172.94576L76.641387 172.94576L76.497618 168.73115L75.993475 158.90815L76.068225 143.63782L76.186126 122.07214L76.170116 88.159449L75.139524 60.720178L85.122383 55.633659L85.122381 55.633659"
       id="path4493"
       style="stroke-width:4.16099977;stroke-miterlimit:4;stroke-dasharray:none" />
    <path
       inkscape:connector-curvature="0"
       d="M47.128945 139.83199L55.400828 131.27566L88.340794 113.04752L99.79767 111.7014L115.19627 111.6372L131.07384 112.06059L147.33211 114.819L157.21871 118.24968L134.9552 133.04931L134.9552 133.04931L125.74624 129.76108L109.8196 127.24652L94.015128 127.02533L78.592959 127.26764L67.345858 129.28983L64.115626 130.4778L62.449082 131.29496L87.854518375 116.19941375L79.839951 121.39871L75.200821 125.63626L71.884724 129.35448L47.128945 139.83203L47.128945 139.83199"
       id="path4495"
       style="stroke-width:4.16099977;stroke-miterlimit:4;stroke-dasharray:none" />
    <path
       inkscape:connector-curvature="0"
       d="M154.38657 116.51786L152.29263 117.99534L154.56425 117.49462L154.82705 118.1809L153.23218 121.1627L153.97167 122.15254L152.6301 126.02991L153.31027 127.50237L153.16914 129.49729L154.54953 130.82095L153.41013 133.47415L150.66332 141.28762L154.78683 141.35152L150.62443 145.5391L150.338 147.73251L150.92979 151.39075L151.33325 154.94148L151.72224 156.54253L154.20977 157.02761L148.89873 161.65613125L153.80872 160.53498L148.641935 164.8769075L152.47575 164.24989L151.96852 167.24483L152.42709 168.2496L149.94507 170.65846L153.14032 170.07704L149.38911 172.94561L152.41909 173.05464L149.42121 175.96553L150.99263 175.74874L150.28151 176.63854L153.10875 175.6725L129.18502 187.84416L129.18502 187.84416L127.84835 188.07786L126.19092 188.41962L126.91182 187.48276L126.91782 186.84207L128.34764 185.39785L126.87495 184.46798L126.08852 183.89001L128.3178 181.67969L128.97242 180.18121L125.20871 180.83677L128.75689 177.6911L127.50121 176.90197L127.91502 175.19185L126.41431 171.05718L127.80584 166.80466L126.28899 165.71418L127.68451 163.10677L125.86316 160.05304L129.73928 153.93616L127.12279 153.10547L129.61576 147.53041L127.54399 146.43157L132.51528 141.85175L128.46083 141.85875L127.87246 140.22119L131.45135 136.61303L127.08566 135.57232L130.03744 131.54699L131.0163 130.05975L129.1195 130.1968L132.07628 127.66199L154.38698 116.51756L154.38657 116.51786"
       id="path4503"
       style="stroke-width:4.16099977;stroke-miterlimit:4;stroke-dasharray:none" />
    <path
       inkscape:connector-curvature="0"
       d="M124.07142 114.28777L124.40135 114.74275L124.20752 115.3032L124.04702 115.96436L124.1893 116.594L124.1299 117.47912L123.95949 118.57512L124.18095 119.6535L123.93342 122.7067L123.92942 124.43633L123.80556 126.47607L123.87656 128.60204L123.96906 130.85979L123.56976 136.00534L123.43108 141.34672L123.55647 149.58305L123.21149 152.586L123.29709 158.25548L122.97109 167.04478L123.05769 172.77627L122.83888 175.77227L122.83388 181.51731L122.99121 184.2888L122.53136 187.35628L122.57216 190.15089L122.50676 192.97721L122.07674 195.96494L122.53764 198.46991L122.27595 201.30223L122.27795 203.96072L121.94005 209.3254L105.09157 217.84136L105.09157 217.84136L105.61054 212.38458L105.56384 209.74831L105.67684 201.48197L105.84615 195.78877L106.11788 192.81831L106.46487 184.05929L106.60034 178.2261L106.67304 175.30273L106.84819 172.33445L106.70363 169.53416L106.62553 166.70558L106.94412 160.83819L106.94512 158.01503L107.16499 149.61391L107.09879 144.3831L106.90005 141.96518L107.17871 139.40574L106.98048 135.04057L106.92658 133.09341L106.79522 131.43855L106.91171 129.8254L106.89741 126.25898L106.83351 125.43666L106.90311 124.69907L106.53393 124.3078L106.50973 123.23537L124.0704 114.28777L124.07142 114.28777"
       id="path4543"
       style="stroke-width:4.16099977;stroke-miterlimit:4;stroke-dasharray:none" />
    <path
       inkscape:connector-curvature="0"
       d="M81.057365 127.5001L80.68707 127.62122L80.8221 127.35978L80.447363 127.44778L80.284218 127.36148L79.446815 127.49361L78.287331 127.47861L78.027341 127.35265L76.959348 127.47131L75.974373 127.50201L75.725376 127.32909L74.254827 127.29019L72.960848 127.44034L72.051838 127.30445L70.956299 127.30145L69.938346 127.23055L69.0818 127.44411L68.763511 127.25633L67.806154 127.08858L67.187375 127.06308L66.874953 126.80165L66.093487 126.85095L65.798906 126.55757L64.500899 126.41101L64.079011 126.17549L63.477912 126.04376L62.549986 125.56563L61.520535 125.12238L60.809369 124.43219L60.024544 124.34679L59.993044 123.78122L58.92921 123.24615L57.875634 122.02326L57.216565 121.78568L56.913326 121.31903L56.580329 120.85518L55.731059 120.00358L55.679219 119.33024L55.058488 118.98839L54.313292 117.96632L53.595768 116.89943L53.395701 116.26417L53.014706 115.73595L52.477113 114.54178L52.075711 113.2658L51.171397 112.29372L50.801083 111.02238L50.358644 110.5335L50.221566 109.86964L49.983843 109.26326L49.148345 107.52848L48.599528 106.38454L65.670129 96.828022L65.670129 96.828022L66.340208 97.873417L66.385638 98.564315L66.366268 99.29574L66.959559 99.685455L67.754341 101.42563L68.127927 102.66701L68.788481 103.02425L68.869961 103.71396L69.239396 104.95355L70.047521 105.93124L70.17115 106.57573L71.230819 108.0581L71.688863 108.46717L72.208963 109.47395L73.405088 110.63813L74.107038 111.40205L74.672543 111.6338L75.070759 112.53138L75.649258 112.72551L75.99647 113.03956L76.228481 113.42462L78.079302 114.25528L78.95348 114.66109L79.272168 114.93365L79.829986 115.03105L80.735317 115.33185L82.219132 115.5978L83.674679 115.7449L84.500091 115.92699L85.705747 115.84029L86.738135 115.87979L90.090218 115.78479L90.318284 115.99418L90.981531 115.88255L92.544747 115.80865L92.781494 115.97559L93.355534 115.89179L93.66167 115.99341L94.429295 115.75055L94.458185 116.02934L95.313805 115.96534L96.46389 115.81086L96.51626 115.95712L97.184235 115.78306L81.057384 127.4999L81.057365 127.5001"
       id="path4545"
       style="stroke-width:4.16099977;stroke-miterlimit:4;stroke-dasharray:none" />
  </g>
</svg>
