<?xml version="1.0" encoding="UTF-8" standalone="no"?>
<!-- Created with Inkscape (http://www.inkscape.org/) -->

<svg
   xmlns:dc="http://purl.org/dc/elements/1.1/"
   xmlns:cc="http://creativecommons.org/ns#"
   xmlns:rdf="http://www.w3.org/1999/02/22-rdf-syntax-ns#"
   xmlns:svg="http://www.w3.org/2000/svg"
   xmlns="http://www.w3.org/2000/svg"
   xmlns:sodipodi="http://sodipodi.sourceforge.net/DTD/sodipodi-0.dtd"
   xmlns:inkscape="http://www.inkscape.org/namespaces/inkscape"
   width="210mm"
   height="297mm"
   viewBox="0 0 210 297"
   version="1.1"
   id="svg8"
   inkscape:version="0.92.1 r15371"
   sodipodi:docname="werb.svg">
  <defs
     id="defs2" />
  <sodipodi:namedview
     id="base"
     pagecolor="#ffffff"
     bordercolor="#666666"
     borderopacity="1.0"
     inkscape:pageopacity="0.0"
     inkscape:pageshadow="2"
     inkscape:zoom="0.49497475"
     inkscape:cx="588.13725"
     inkscape:cy="546.64163"
     inkscape:document-units="mm"
     inkscape:current-layer="layer1"
     showgrid="false"
     inkscape:window-width="1920"
     inkscape:window-height="1057"
     inkscape:window-x="-8"
     inkscape:window-y="-8"
     inkscape:window-maximized="1" />
  <metadata
     id="metadata5">
    <rdf:RDF>
      <cc:Work
         rdf:about="">
        <dc:format>image/svg+xml</dc:format>
        <dc:type
           rdf:resource="http://purl.org/dc/dcmitype/StillImage" />
        <dc:title></dc:title>
      </cc:Work>
    </rdf:RDF>
  </metadata>
  <g
     inkscape:label="Layer 1"
     inkscape:groupmode="layer"
     id="layer1">
    <path
       sodipodi:type="spiral"
       style="fill:none;fill-rule:evenodd;stroke:#000000;stroke-width:6.85729808;stroke-miterlimit:4;stroke-dasharray:none"
       id="path12"
       sodipodi:cx="-90.79026"
       sodipodi:cy="-84.460846"
       sodipodi:expansion="0.5"
       sodipodi:revolution="1"
       sodipodi:radius="67.347679"
       sodipodi:argument="-15.752877"
       sodipodi:t0="0.059"
       d="m -106.28844,-89.696628 c -11.74982,-16.918652 13.673935,-31.251902 27.48033,-30.231982 25.19321,1.86109 40.075513,28.243952 35.722476,51.583918 -5.684344,30.478127 -37.839733,48.052639 -67.092486,41.272873 -25.67457,-5.95047 -44.65463,-28.460503 -47.8919,-54.365192"
       transform="matrix(-1,0,0,-0.36820474,0,16.188995)" />
    <path
       style="stroke-width:4.16099977;stroke-miterlimit:4;stroke-dasharray:none"
       id="path4493"
       d="m 85.122381,55.633659 c 0.03058,9.281832 0.135123,18.563979 0.207309,27.845797 0.08147,11.266054 0.183002,22.531954 0.264287,33.798004 0.07808,7.14908 0.08782,14.29846 0.116287,21.44782 0.02574,5.06539 0.03824,10.13083 0.07027,15.19618 -0.06431,3.24197 0.341659,6.46396 0.591241,9.68998 0.109987,1.40822 0.173701,2.81918 0.222583,4.23061 0,0 -9.952971,5.10371 -9.952971,5.10371 v 0 c -0.02387,-1.40557 -0.05774,-2.81119 -0.143769,-4.21461 -0.211884,-3.2712 -0.576557,-6.54146 -0.504143,-9.823 0.03256,-5.09008 0.04623,-10.18023 0.07475,-15.27033 0.0323,-7.18862 0.04881,-14.37726 0.117901,-21.56568 0.05945,-11.30411 0.117875,-22.608808 -0.01601,-33.912691 -0.134361,-9.149295 -0.201673,-18.320774 -1.030592,-27.439271 0,0 9.982859,-5.086519 9.982859,-5.086519 z"
       inkscape:connector-curvature="0" />
    <path
       style="stroke-width:4.16099977;stroke-miterlimit:4;stroke-dasharray:none"
       id="path4495"
       d="m 47.128945,139.83199 c 2.591957,-3.01116 5.338324,-5.87641 8.271883,-8.55633 9.861788,-7.8162 20.797412,-14.78287 32.939966,-18.22814 3.707813,-1.12951 7.610411,-1.26548 11.456876,-1.34612 5.13235,-0.0846 10.26574,-0.0575 15.3986,-0.0642 5.30212,-0.0223 10.59647,-0.0927 15.87757,0.42339 5.51098,0.34002 10.88501,1.57969 16.25827,2.75841 3.43733,0.7172 6.66159,2.09292 9.8866,3.43068 0,0 -22.26351,14.79963 -22.26351,14.79963 v 0 c -2.95787,-1.39423 -6.0108,-2.56514 -9.20896,-3.28823 -5.23205,-1.2874 -10.53648,-2.22392 -15.92664,-2.51456 -5.26438,-0.32073 -10.532713,-0.19499 -15.804472,-0.22119 -5.141161,-0.01 -10.286222,-0.0214 -15.422169,0.24231 -3.815289,0.29452 -7.621904,0.71146 -11.247101,2.02219 -1.17615,0.39993 -2.081871,0.68107 -3.230232,1.18797 -0.566009,0.24985 -2.199007,1.13224 -1.666544,0.81716 36.981206,-21.88294 24.969668,-15.0731 17.390869,-9.89625 -1.704443,1.31415 -3.125904,2.71518 -4.63913,4.23755 -1.172128,1.17921 -2.464414,2.26085 -3.316097,3.71822 0,0 -24.755779,10.47755 -24.755779,10.47755 z"
       inkscape:connector-curvature="0" />
    <path
       style="stroke-width:4.16099977;stroke-miterlimit:4;stroke-dasharray:none"
       id="path4503"
       d="m 154.38657,116.51786 c -0.69798,0.4925 -2.24682,0.63704 -2.09394,1.47748 0.13877,0.76287 1.49831,-0.55734 2.27162,-0.50072 0.24431,0.0179 0.36069,0.46173 0.2628,0.68628 -0.46293,1.06195 -1.84559,1.58902 -1.59487,2.9818 0.073,0.40534 0.49299,0.65989 0.73949,0.98984 0.48016,1.56259 -1.17604,2.51979 -1.34157,3.87737 -0.0654,0.53668 0.59712,0.93822 0.68017,1.47246 0.10241,0.65872 -0.37435,1.37041 -0.14113,1.99492 0.22301,0.59721 1.34183,0.68734 1.38039,1.32366 0.0582,0.96074 -0.7596,1.76881 -1.1394,2.6532 3.59333,1.12879 -4.21424,6.40868 -2.74681,7.81347 0.993,0.95062 4.13609,-1.31076 4.12351,0.0639 -0.018,1.96803 -3.03679,2.57312 -4.1624,4.18758 -0.4217,0.60485 -0.19095,1.46227 -0.28643,2.19341 -0.7787,7.07388 -0.16892,-2.12083 0.59179,3.65824 0.98071,7.45044 -1.78016,-2.33753 0.40346,3.55073 0.19096,0.51494 -0.0556,1.27862 0.38899,1.60105 0.68388,0.49597 1.65836,0.32339 2.48753,0.48508 -13.82848,12.55245 -0.20061,-1.37885 -0.40105,3.50737 -10.67835,9.64808 -2.65542,0.69209 -1.33297,3.71491 2.62008,5.98892 -4.39435,-0.0401 -0.50723,2.99494 0.15286,0.33492 0.30572,0.66985 0.45857,1.00477 -0.82734,0.80296 -2.90119,1.33484 -2.48202,2.40886 0.3936,1.00849 3.45096,-1.63336 3.19525,-0.58142 -0.37181,1.52956 -2.81005,1.60681 -3.75121,2.86857 -0.0191,0.0257 2.98537,0.10772 3.02998,0.10903 2.8767,-7.69483 -4.35927,2.61648 -2.99788,2.91089 0.51682,0.11177 1.15495,-0.54259 1.57142,-0.21679 0.29904,0.23395 -1.09055,0.90347 -0.71112,0.8898 0.99526,-0.0359 1.88483,-0.64402 2.82724,-0.96604 0,0 -23.92373,12.17166 -23.92373,12.17166 v 0 c -0.44556,0.0779 -0.89248,0.14833 -1.33667,0.2337 -0.55396,0.10647 -1.18132,0.64429 -1.65743,0.34176 -0.33257,-0.21133 0.55607,-0.57895 0.7209,-0.93686 0.0893,-0.19399 0.004,-0.42713 0.006,-0.64069 0.47661,-0.48141 0.95322,-0.96281 1.42982,-1.44422 0.74674,-1.84442 0.56979,-0.53645 -1.47269,-0.92987 -0.31945,-0.0615 -0.93595,-0.28903 -0.78643,-0.57797 0.48092,-0.92937 1.58693,-1.38423 2.22928,-2.21032 0.33459,-0.43029 1.18071,-1.35585 0.65462,-1.49848 -1.22909,-0.33323 -2.50914,0.43704 -3.76371,0.65556 1.18273,-1.04855 2.75249,-1.77995 3.54818,-3.14567 0.24887,-0.42714 -1.09787,-0.32064 -1.25568,-0.78913 -0.18722,-0.5558 0.42582,-1.12375 0.41381,-1.71012 -0.0436,-2.13126 -2.85237,-1.67554 -1.50071,-4.13467 0.84775,-1.29246 2.54084,-2.54589 1.39153,-4.25252 -0.34784,-0.51651 -1.49643,-0.4681 -1.51685,-1.09048 -0.0323,-0.98526 1.02055,-1.69572 1.39552,-2.60741 1.21969,-2.96553 0.93243,-2.16446 -1.82135,-3.05373 0.0608,-0.0852 4.06866,-5.42436 3.87612,-6.11688 -0.24513,-0.88162 -2.23797,0.002 -2.61649,-0.83069 -0.31494,-0.69317 2.54609,-5.22215 2.49297,-5.57506 -0.11635,-0.773 -1.38118,-0.73256 -2.07177,-1.09884 1.65709,-1.52661 4.52833,-2.37068 4.97129,-4.57982 0.2657,-1.32511 -2.77929,0.45509 -4.05445,0.007 -0.54726,-0.19216 -0.87563,-1.13367 -0.58837,-1.63756 0.83898,-1.47167 2.95389,-2.03365 3.57889,-3.60816 0.55195,-1.39047 -5.22074,-0.31178 -4.36569,-1.04071 8.08462,-7.78589 1.49973,-0.099 2.95178,-4.02533 0.20586,-0.55664 1.31254,-0.99644 0.97886,-1.48724 -0.35641,-0.52424 -1.70608,0.7416 -1.8968,0.13705 -0.0413,-0.13107 2.83524,-2.4358 2.95678,-2.53481 0,0 22.3107,-11.14443 22.3107,-11.14443 z"
       inkscape:connector-curvature="0" />
    <path
       style="stroke-width:4.16099977;stroke-miterlimit:4;stroke-dasharray:none"
       id="path4543"
       d="m 124.07142,114.28777 c -0.18769,0.32183 0.30541,0.26926 0.32993,0.45498 0.0259,0.19598 -0.13876,0.3706 -0.19383,0.56045 -0.0632,0.21781 -0.1573,0.43439 -0.1605,0.66116 -0.003,0.21515 0.0948,0.41976 0.14228,0.62964 -0.0198,0.29504 -0.0396,0.59008 -0.0594,0.88512 -0.0568,0.36533 -0.17909,0.72638 -0.17041,1.096 0.009,0.36686 0.20348,0.71186 0.22146,1.07838 0.0192,0.39217 -0.23405,2.75663 -0.24753,3.0532 -0.0262,0.57595 -0.003,1.15308 -0.004,1.72963 -0.0413,0.67991 -0.0826,1.35983 -0.12386,2.03974 0.0237,0.70866 0.0446,1.41741 0.071,2.12597 0.0281,0.75269 0.11563,1.50489 0.0925,2.25775 -0.0683,2.2193 -0.44683,2.90719 -0.3993,5.14555 0.1118,5.26557 0.68546,-0.50408 -0.13868,5.34138 0.16698,2.75175 0.3499,5.48162 0.12539,8.23633 -0.0818,1.00424 -0.33527,1.99543 -0.34498,3.00295 -0.10569,10.95962 0.89939,-6.13503 0.0856,5.66948 0.15957,2.93682 -0.28622,5.85825 -0.326,8.7893 -0.0558,4.11259 0.23372,1.59461 0.0866,5.73149 -0.0356,1.00069 -0.14588,1.99733 -0.21881,2.996 0.0922,1.91448 -0.0513,3.83059 -0.005,5.74504 0.0226,0.92504 0.20521,1.84741 0.15733,2.77149 -0.0535,1.03253 -0.38612,2.03619 -0.45985,3.06748 -0.0664,0.92926 0.0448,1.86298 0.0408,2.79461 -0.004,0.94235 -0.0436,1.88421 -0.0654,2.82632 -0.14334,0.99591 -0.43568,1.98157 -0.43002,2.98773 0.005,0.84899 0.42924,1.65655 0.4609,2.50497 0.0354,0.94747 -0.21692,1.88525 -0.26169,2.83232 -0.0418,0.88517 0.0198,1.7725 0.002,2.65849 -0.0487,2.44283 -0.13001,2.92534 -0.3379,5.36468 0,0 -16.84848,8.51596 -16.84848,8.51596 v 0 c 0.0855,-7.85389 -0.17002,3.08061 0.51897,-5.45678 0.0707,-0.87605 -0.0497,-1.75738 -0.0467,-2.63627 0.01,-2.75768 0.31163,-5.50869 0.113,-8.26634 0.0174,-0.65163 0.12937,-5.05584 0.16931,-5.6932 0.0622,-0.99234 0.22121,-1.97745 0.27173,-2.97046 0.14841,-2.91706 -0.14822,-5.85897 0.34699,-8.75902 -0.31421,-4.89313 -0.19932,-0.68051 0.13547,-5.83319 0.0632,-0.9727 0.0318,-1.94947 0.0727,-2.92337 0.0417,-0.99027 0.16989,-1.97715 0.17515,-2.96828 0.005,-0.93466 -0.10762,-1.86635 -0.14456,-2.80029 -0.0373,-0.94248 -0.0521,-1.88572 -0.0781,-2.82858 0.0997,-3.88758 -0.005,-1.93169 0.31859,-5.86739 0.0399,-0.94021 -0.0232,-1.88243 0.001,-2.82316 0.0729,-2.7998 0.2477,-5.59748 0.21987,-8.40112 -0.0365,-1.74336 0.007,-3.48859 -0.0662,-5.23081 -0.0338,-0.80798 -0.21173,-1.60933 -0.19874,-2.41792 0.0138,-0.85808 0.29489,-1.7014 0.27866,-2.55944 -0.1428,-7.55012 -0.79058,3.5165 -0.19823,-4.36517 -0.018,-0.64905 -0.0206,-1.29871 -0.0539,-1.94716 -0.0284,-0.55262 -0.12885,-1.10151 -0.13136,-1.65486 -0.002,-0.53911 0.0992,-1.07431 0.11649,-1.61315 0.0386,-1.20171 -0.24903,-2.37588 -0.0143,-3.56642 -0.0213,-0.27411 -0.0649,-0.54739 -0.0639,-0.82232 7.9e-4,-0.24695 0.13293,-0.4989 0.0696,-0.73759 -0.046,-0.17332 -0.32448,-0.21762 -0.36918,-0.39127 -0.1192,-0.46307 0.68169,-0.92024 -0.0242,-1.07243 0,0 17.56067,-8.9476 17.56067,-8.9476 z"
       inkscape:connector-curvature="0" />
    <path
       style="stroke-width:4.16099977;stroke-miterlimit:4;stroke-dasharray:none"
       id="path4545"
       d="m 81.057365,127.5001 c -0.12343,0.0404 -0.25876,0.18764 -0.370295,0.12112 -0.08424,-0.0502 0.214488,-0.20393 0.13503,-0.26144 -0.103938,-0.0752 -0.24643,0.0875 -0.374737,0.088 -0.06152,1.9e-4 -0.101986,-0.0796 -0.163145,-0.0863 -0.199887,-0.0218 -0.681908,0.0995 -0.837403,0.13213 -0.404273,-0.1744 -0.756269,-2.7e-4 -1.159484,-0.015 -0.09623,-0.003 -0.163936,-0.13282 -0.25999,-0.12596 -1.411152,0.10085 -0.191532,0.30997 -1.067993,0.11866 -0.947968,-0.278 0.554516,0.10716 -0.984975,0.0307 -0.100925,-0.005 -0.148937,-0.15881 -0.248997,-0.17292 -0.549508,-0.0775 -0.932114,0.1973 -1.470549,-0.0389 -0.196225,0.0265 -1.08,0.15472 -1.293979,0.15015 -0.837216,-0.0179 -0.01881,-0.16974 -0.90901,-0.13589 -1.128961,0.0429 -0.272489,0.19667 -1.095539,-0.003 -0.07621,-0.006 -0.954982,-0.0792 -1.017953,-0.0709 -0.291724,0.0385 -0.562361,0.20711 -0.856546,0.21356 -0.123156,0.003 -0.199678,-0.15452 -0.318289,-0.18778 -0.311951,-0.0875 -0.645009,-0.0817 -0.957357,-0.16775 -0.206259,-0.009 -0.41252,-0.017 -0.618779,-0.0255 -0.10414,-0.0871 -0.179115,-0.23558 -0.312422,-0.26143 -0.256236,-0.0497 -0.526923,0.10707 -0.781466,0.0493 -0.135151,-0.0307 -0.15993,-0.2606 -0.294581,-0.29338 -0.967066,0.0369 -0.538848,0.1158 -1.298007,-0.14656 -0.140628,-0.0785 -0.270303,-0.1811 -0.421888,-0.23552 -0.193059,-0.0693 -0.407263,-0.0646 -0.601099,-0.13173 -0.05293,-0.0183 -0.87706,-0.45454 -0.927926,-0.47813 -0.338928,-0.15719 -0.688488,-0.29052 -1.029451,-0.44325 -0.35355,-0.0742 -0.404347,-0.56777 -0.711166,-0.69019 -0.244414,-0.0975 -0.57908,0.0787 -0.784825,-0.0854 -0.147625,-0.11772 0.04541,-0.39312 -0.0315,-0.56557 -0.18497,-0.41473 -0.715571,-0.44183 -1.063834,-0.53507 -1.453253,-0.31064 -0.701111,-0.81676 -1.053576,-1.22289 -0.153064,-0.17637 -0.470614,-0.0997 -0.659069,-0.23758 -0.149704,-0.10955 -0.198533,-0.31352 -0.303239,-0.46665 -0.107432,-0.15712 -0.221999,-0.30923 -0.332997,-0.46385 -0.04393,-0.49682 -0.664099,-0.49602 -0.84927,-0.8516 -0.103976,-0.19966 0.07249,-0.48568 -0.05184,-0.67334 -0.130461,-0.19692 -0.437568,-0.19269 -0.620731,-0.34185 -0.236818,-0.19285 -0.58448,-0.77361 -0.745196,-1.02207 -1.111292,-2.45511 0.660389,1.29127 -0.717524,-1.06689 -0.112003,-0.19168 -0.100875,-0.43664 -0.200067,-0.63526 -0.097,-0.19422 -0.30321,-0.32554 -0.380995,-0.52822 -0.525613,-1.3696 0.450535,-0.10324 -0.537593,-1.19417 -0.07744,-0.33007 -0.195236,-0.98252 -0.401402,-1.27598 -0.379355,-0.53998 -0.640385,-0.33639 -0.904314,-0.97208 -0.129617,-0.89878 -0.0019,-0.47631 -0.370314,-1.27134 -0.147479,-0.16296 -0.34372,-0.29251 -0.442439,-0.48888 -0.101491,-0.20188 -0.07313,-0.44714 -0.137078,-0.66386 -0.06144,-0.20823 -0.154522,-0.40585 -0.237723,-0.60638 -0.251251,-0.60557 -0.594809,-1.12435 -0.835498,-1.73478 -0.136528,-0.88401 0.0512,-0.50503 -0.548817,-1.14394 0,0 17.070601,-9.556518 17.070601,-9.556518 v 0 c 0.511876,0.65665 0.288708,0.308062 0.670079,1.045395 0.01513,0.230298 0.0412,0.460139 0.04543,0.690898 0.0045,0.243854 -0.130511,0.514324 -0.01937,0.731425 0.107818,0.210622 0.42327,0.225158 0.593291,0.389715 0.556676,0.538785 0.230537,1.215285 0.794782,1.740175 0.552331,0.69256 0.404929,0.28635 0.373586,1.24138 0.125355,0.21668 0.515806,0.15301 0.660554,0.35724 0.133866,0.18888 -0.0026,0.474 0.08148,0.68971 0.519205,1.3326 0.4045,-0.43134 0.369435,1.23959 0.251558,0.25784 0.663699,0.6287 0.808125,0.97769 0.08365,0.20212 0.02315,0.45018 0.123629,0.64449 0.235183,0.45483 1.007885,0.86212 1.059669,1.48237 0.152681,0.13636 0.331968,0.24779 0.458044,0.40907 1.236853,1.58215 -0.703982,-0.54915 0.5201,1.00678 0.333428,0.42382 0.852103,0.74335 1.196125,1.16418 0.18678,0.23808 0.435708,0.59893 0.70195,0.76392 0.17316,0.10731 0.403514,0.10822 0.565505,0.23175 1.314704,1.00255 -0.757753,-0.22536 0.398216,0.89758 0.145897,0.14172 0.385665,0.12942 0.578499,0.19413 0.115736,0.10468 0.231476,0.20937 0.347212,0.31405 0.07734,0.12836 0.125876,0.27927 0.232011,0.38506 0.48482,0.48324 1.255067,0.56814 1.850821,0.83066 0.518284,0.16606 0.465773,0.0985 0.874178,0.40581 0.111694,0.084 0.18991,0.2182 0.318688,0.27256 0.173897,0.0734 0.386498,0.0182 0.557818,0.0974 0.985753,0.45586 -0.831013,0.24956 0.905331,0.3008 0.50574,0.20114 0.965231,0.14273 1.483815,0.26595 0.554146,0.13167 0.824756,0.41814 1.455547,0.1471 0.275862,0.0573 0.544089,0.16655 0.825412,0.18209 0.40231,0.0222 0.807387,-0.14776 1.205656,-0.0867 1.208207,0.18526 -1.437031,0.51501 1.032388,0.0395 1.131303,-0.12238 2.23038,0.21321 3.352083,-0.095 0.07602,0.0698 0.125476,0.19814 0.228066,0.20939 0.222856,0.0245 0.439864,-0.0926 0.663247,-0.11163 0.166891,-0.0142 1.478378,-0.0846 1.563216,-0.0739 0.0958,0.0121 0.15783,0.1113 0.236747,0.16694 0.191347,-0.0279 0.382693,-0.0559 0.57404,-0.0838 0.102047,0.0339 0.199533,0.11565 0.306136,0.10162 0.266084,-0.035 0.49952,-0.25496 0.767625,-0.24286 0.09333,0.004 -0.05675,0.24143 0.02889,0.27879 0.262141,0.11436 0.584888,-0.20639 0.85562,-0.064 0.23958,-0.065 0.859396,-0.27232 1.150085,-0.15448 0.04799,0.0194 0.0011,0.13975 0.05237,0.14626 0.22827,0.0289 0.439097,-0.19739 0.667975,-0.17406 0,0 -16.126851,11.71684 -16.126851,11.71684 z"
       inkscape:connector-curvature="0" />
  </g>
</svg>
